<svg xmlns="http://www.w3.org/2000/svg" viewBox="0 0 1060.38 646.52"><defs><style>.cls-1{fill:#fff;}.cls-2{fill:red;}</style></defs><title>Asset 1</title><g id="Layer_2" data-name="Layer 2"><g id="Layer_1-2" data-name="Layer 1"><path class="cls-1" d="M146.31,477.29H100.66L58.38,137h50.93L129,357.3,155,137h45.16l27.39,221.83L247.69,137h48.05l-41.8,340.3H208.77L177.54,250.93Z"/><path class="cls-1" d="M415.42,477.29V137h53.33V281.68L523.52,137h53.82L512,298.32l67.27,179H523.52L476.44,346.21l-7.69,10.09v121Z"/><path class="cls-1" d="M595.82,137H715.45v48.9H650.11v95.79h53.33v47.39H650.11v99.32h65.34v48.9H595.82Z"/><path class="cls-1" d="M738.94,137h53.81V426.88h62.46v50.41H738.94Z"/><path class="cls-1" d="M935.78,372.43V477.29H882.45V372.43h-7.69c-24,0-39.39-15.63-39.39-40.33V137h53.81V318.48c0,2.52,2.4,5,3.84,5h34.11c1.93,0,1.93-2.53,1.93-5V137h53.81V332.1c0,24.7-15.37,40.33-39.88,40.33Z"/><path class="cls-2" d="M1051.44,333.19c.54-.29,1.08-.57,1.6-.87s3.36-2.58,4.47-3.1l.15-.13c.55-.52,1.09-1.06,1.61-1.61a9.92,9.92,0,0,1,.76-1.15,11.06,11.06,0,0,1,.35-1.7c0-.18-.05-1-.08-1.77a3,3,0,0,1-.15-1.31l0-.11a2.53,2.53,0,0,1-.62-1.8c-.26-.42-.51-.84-.76-1.26-.6-.58-1.13-1.29-1.73-1.87s-1.43-1.23-2.08-1.89l-2.24-1.48Q936.46,306,820,302.73c-95.52-6.3-206.6-14.85-310.11-11.29a78.84,78.84,0,0,0-16.3-33.09c-21.42-25.54-56.51-40.94-88.85-46.11a175.77,175.77,0,0,0-25-2.18q-1.51-28.78-2.6-57.57c-1.81-47.51-2.88-95-3.93-142.57-.22-9.9-13.62-13.81-18.77-5.08-17.2,29.19-26.23,61.87-32.2,95-6.45,35.82-11.09,72-16.21,108.07-.92,6.48-1.81,13-2.72,19.43a7.72,7.72,0,0,0-2.42,4.24c-37.33,13.93-71.24,38.54-87,74.54q-30.39,2.91-60.74,6.45C106.44,318,58,319.21,12.38,326c-19.88,4.58-12.76,21.39,0,20.14,42.78-4.17,83.79-8,125.39-12.72C161,330.82,184,329.3,207.21,327c-.54,2.51-1,5.06-1.4,7.67-4,27.88,2.61,56.59,22,77.62,12.71,13.8,29.51,23.5,47.19,30.91q-7.49,61.14-14.39,122.36c-1.45,12.85,18.7,12.75,20.14,0q6.48-57.61,13.34-115.23c4.55,1.53,9.09,3,13.55,4.32,24.35,7.35,51.17,11.87,77.17,10.7q3.06,19.49,6.52,38.93,12.24,68.24,30.51,135.16c3.43,12.48,22.86,7.18,19.42-5.36a1559.15,1559.15,0,0,1-36.37-170.86c25.7-4.38,49.7-15.34,68.56-35.88,20.2-22,31.82-50.88,36.64-80.09a175.15,175.15,0,0,0,2.58-35.13H513c169.46-2.12,358.93,10.4,528.1,20.46C1044.57,332.75,1048,333,1051.44,333.19ZM338.81,122.64c3.63-23,8-46.08,15.39-68.11,1.3,52.14,2.95,104.31,5.67,156.39a170,170,0,0,0-35.49,7.52Q331.28,170.49,338.81,122.64ZM320.42,246.32c4.79-1.45,9.59-2.74,14.37-3.82a8.67,8.67,0,0,0,7.2-8.38,147.19,147.19,0,0,1,19-3.21q1.88,32.43,4.41,64.8-26.06,1.21-52.1,2.77Q316.78,272.4,320.42,246.32ZM277.54,422.48c-28.12-13.42-51.23-34.21-52.76-67.67a90,90,0,0,1,3.52-29.89c11.71-1.08,23.44-2.1,35.18-3,9.08-.69,18.17-1.31,27.25-1.91Q283.93,371.22,277.54,422.48Zm15.9-122.79-.3,0q-27.78,1.82-55.49,4.24c13.66-22.45,36.67-39.07,62-50Q296.52,276.8,293.44,299.69ZM334.3,440.76a313.87,313.87,0,0,1-37.81-10.5q6.75-55.77,14.1-111.47,28.21-1.68,56.44-2.88c3.72,43.24,8.48,86.37,14.73,129.35A190.14,190.14,0,0,1,334.3,440.76ZM380.92,230.1c29.08.81,57.93,10,81.72,27.11,10.59,7.63,20.25,17.28,25.21,29.56q1,2.46,1.75,5-52.14.93-104.22,3.05Q382.8,262.48,380.92,230.1ZM492.11,330.36c-2.26,25.09-9.81,50.51-24,71.47-16.31,24.05-40.16,36.55-66.29,41.28-6.23-42.49-11-85.2-14.74-128q52.82-2,105.69-2.69A147,147,0,0,1,492.11,330.36Z"/></g></g></svg>