<?xml version="1.0" encoding="utf-8"?>
<!-- Generator: Adobe Illustrator 23.0.1, SVG Export Plug-In . SVG Version: 6.00 Build 0)  -->
<svg version="1.1"
	 id="svg2" inkscape:version="0.48.3.1 r9886" sodipodi:docname="htmlcss.svg" xmlns:cc="http://creativecommons.org/ns#" xmlns:dc="http://purl.org/dc/elements/1.1/" xmlns:inkscape="http://www.inkscape.org/namespaces/inkscape" xmlns:rdf="http://www.w3.org/1999/02/22-rdf-syntax-ns#" xmlns:sodipodi="http://sodipodi.sourceforge.net/DTD/sodipodi-0.dtd" xmlns:svg="http://www.w3.org/2000/svg"
	 xmlns="http://www.w3.org/2000/svg" xmlns:xlink="http://www.w3.org/1999/xlink" x="0px" y="0px" viewBox="0 0 791.3 512"
	 style="enable-background:new 0 0 791.3 512;" xml:space="preserve">
<style type="text/css">
	.st0{fill:#525252;}
	.st1{fill:#626262;}
	.st2{fill:#EBEBEB;}
	.st3{fill:#FFFFFF;}
	.st4{fill:#767676;}
	.st5{fill:#888888;}
</style>
<sodipodi:namedview  bordercolor="#666666" borderopacity="1.0" fit-margin-bottom="0" fit-margin-left="0" fit-margin-right="0" fit-margin-top="0" id="base" inkscape:current-layer="layer1" inkscape:cx="-276.49014" inkscape:cy="244.10462" inkscape:document-units="px" inkscape:pageopacity="0.0" inkscape:pageshadow="2" inkscape:window-height="938" inkscape:window-maximized="1" inkscape:window-width="1280" inkscape:window-x="0" inkscape:window-y="31" inkscape:zoom="0.35" pagecolor="#ffffff" showgrid="false">
	</sodipodi:namedview>
<g id="layer1" transform="translate(-170.06157,-270.18109)" inkscape:groupmode="layer" inkscape:label="Calque 1">
	<g id="g3013_1_" transform="translate(95.428571,270.18109)">
		<polygon id="polygon2989_1_" class="st0" points="683.9,512 535.7,470.9 502.7,100.6 865.5,100.6 832.4,470.8 		"/>
		<polygon id="polygon2991_1_" class="st1" points="804.1,447.2 832.4,130.9 684.1,130.9 684.1,480.5 		"/>
		<polygon id="polygon2993_1_" class="st2" points="578.4,268.2 582.5,313.6 684.1,313.6 684.1,268.2 		"/>
		<polygon id="polygon2995_1_" class="st2" points="570.2,176.3 574.3,221.7 684.1,221.7 684.1,176.3 683.9,176.3 		"/>
		<polygon id="polygon2997_1_" class="st2" points="684.1,386.2 683.9,386.2 633.3,372.5 630.1,336.3 605.5,336.3 584.5,336.3 
			590.9,407.6 683.9,433.5 684.1,433.4 		"/>
		<path id="path2999_1_" inkscape:connector-curvature="0" d="M588.1,0h55v23h-32v23h32v23h-55V0z"/>
		<path id="path3001_1_" inkscape:connector-curvature="0" d="M654.1,0h55v20h-32v4h32v46h-55V49h32v-4h-32V0z"/>
		<path id="path3003_1_" inkscape:connector-curvature="0" d="M720.1,0h55v20h-32v4h32v46h-55V49h32v-4h-32V0z"/>
		<polygon id="polygon3005_1_" class="st3" points="789.5,268.2 797.7,176.3 683.9,176.3 683.9,221.7 747.9,221.7 743.8,268.2 
			683.9,268.2 683.9,313.6 739.8,313.6 734.6,372.5 683.9,386.2 683.9,433.4 777,407.6 777.7,400 788.4,280.4 		"/>
	</g>
	<g id="g3054" transform="translate(524,270.18109)">
		<polygon id="polygon3028" class="st4" points="8.8,100.6 -24.3,470.8 -172.8,512 -320.9,470.9 -353.9,100.6 		"/>
		<polygon id="polygon3030" class="st5" points="-172.6,480.5 -52.5,447.2 -24.3,130.9 -172.6,130.9 		"/>
		<polygon id="polygon3032" class="st2" points="-236.8,221.7 -172.6,221.7 -172.6,176.3 -172.7,176.3 -286.4,176.3 -285.4,188.5 
			-274.2,313.6 -172.6,313.6 -172.6,268.2 -232.7,268.2 		"/>
		<polygon id="polygon3034" class="st2" points="-226.6,336.3 -251.2,336.3 -272.2,336.3 -265.8,407.6 -172.8,433.5 -172.6,433.4 
			-172.6,386.2 -172.8,386.2 -223.3,372.5 		"/>
		<path id="path3036" inkscape:connector-curvature="0" d="M-320.2,0h23.1v22.8h21.1V0h23.1v69H-276V45.9h-21.1V69h-23.1L-320.2,0
			L-320.2,0z"/>
		<path id="path3038" inkscape:connector-curvature="0" d="M-222.6,22.9h-20.3V0h63.7v22.9h-20.3V69h-23.1L-222.6,22.9L-222.6,22.9z
			"/>
		<path id="path3040" inkscape:connector-curvature="0" d="M-169.1,0h24.1l14.8,24.3L-115.4,0h24.1v69h-23V34.8l-15.9,24.5h-0.4
			l-15.9-24.5V69h-22.6L-169.1,0L-169.1,0z"/>
		<path id="path3042" inkscape:connector-curvature="0" d="M-79.9,0h23.1v46.2h32.5V69h-55.5V0z"/>
		<polygon id="polygon3044" class="st3" points="-172.7,313.6 -116.8,313.6 -122.1,372.5 -172.7,386.2 -172.7,433.4 -79.6,407.6 
			-79,400 -68.3,280.4 -67.2,268.2 -79.4,268.2 -172.7,268.2 		"/>
		<polygon id="polygon3046" class="st3" points="-172.7,221.6 -172.7,221.7 -63.2,221.7 -63.2,221.7 -63,221.7 -62.1,211.5 
			-60.1,188.5 -59,176.3 -172.7,176.3 -172.7,204.5 		"/>
	</g>
</g>
</svg>
